<svg xmlns="http://www.w3.org/2000/svg" viewBox="0 0 512 512" width="512" height="512">
  <defs>
    <clipPath id="tile"><rect x="16" y="16" width="480" height="480" rx="108"/></clipPath>
    <pattern id="argyle" width="120" height="160" patternUnits="userSpaceOnUse">
      <rect width="120" height="160" fill="#181003"/>
      <polygon points="60,0 120,80 60,160 0,80" fill="#53380B"/>
      <polygon points="0,0 60,80 0,160" fill="#332207"/>
      <polygon points="120,0 60,80 120,160" fill="#332207"/>
      <g stroke="#F5A623" stroke-width="2" opacity="0.30" stroke-dasharray="6 7">
        <path d="M60 -80 L200 80 M60 -80 L-80 80 M60 80 L200 240 M60 80 L-80 240 M60 240 L200 400 M60 240 L-80 400"/>
      </g>
    </pattern>
  </defs>
  <g clip-path="url(#tile)"><rect x="16" y="16" width="480" height="480" fill="url(#argyle)"/></g>
  <rect x="16" y="16" width="480" height="480" rx="108" fill="none" stroke="#2BD3D3" stroke-width="6"/>
  <g fill="#F5A623"><rect x="156" y="156" width="200" height="200" rx="18"/><path d="M300 220 a44 44 0 1 0 -80 26 l-24 40 48 -12 a44 44 0 0 0 56 -54 z" fill="#0b0b0b" opacity="0.6"/></g>
</svg>
